# xmcd
#
# Track frame offsets:
#	182
#	22237
#	44512
#	62097
#	81815
#	97862
#	117190
#	138880
#	156935
#	174115
#	194442
#	211607
#	232982
#	252290
#
# Disc length: 3601 seconds
#
# Revision: 0
# Processed by: cddbd v1.5.2PL0 Copyright (c) Steve Scherf et al.
# Submitted via: EZCDAudioConverter 7.0.0.1
#
DISCID=b10e0f0e
DTITLE=群星 - 流行歌坛名人4
DYEAR=1999
DGENRE=
TTITLE0=孙国庆 - 梅
TTITLE1=江珊 - 梦里水乡
TTITLE2=王炎／何影 - 我听过你的歌
TTITLE3=戴军 - 阿莲
TTITLE4=解晓东 - 今儿高兴
TTITLE5=孙浩 - 中华民谣
TTITLE6=江涛 - 风中的眼睛
TTITLE7=周亮 - 女孩的心思你别猜
TTITLE8=黄鹤翔 - 九妹
TTITLE9=俞静 - 楼兰姑娘
TTITLE10=朱桦 - 凤凰与蝴蝶
TTITLE11=甘萍 - 大哥你好吗
TTITLE12=冯小泉 - 冰糖葫芦
TTITLE13=刁寒 - 花好月圆
EXTD=
EXTT0=
EXTT1=
EXTT2=
EXTT3=
EXTT4=
EXTT5=
EXTT6=
EXTT7=
EXTT8=
EXTT9=
EXTT10=
EXTT11=
EXTT12=
EXTT13=
PLAYORDER=
